<?xml version="1.0" encoding="UTF-8"?>
<svg version="1.1" xmlns="http://www.w3.org/2000/svg" width="93" height="94">
<path d="M0 0 C2.05655564 1.45028779 3.90699808 2.99715896 5.77734375 4.6796875 C6.45539063 5.25460937 7.1334375 5.82953125 7.83203125 6.421875 C14.70157521 12.66927158 20.22694499 21.53057692 20.9543457 30.97875977 C21.34319962 46.95275487 20.82280976 58.32374248 9.77734375 70.6796875 C9.23078125 71.3190625 8.68421875 71.9584375 8.12109375 72.6171875 C1.27173651 80.11271052 -8.49992975 84.50237898 -18.640625 85.015625 C-33.26709702 85.29286077 -45.39562076 83.0110018 -56.37890625 72.64453125 C-66.5667604 61.86745419 -69.96523316 49.84759871 -69.58984375 35.328125 C-68.8377956 22.32995938 -62.55085685 12.50888611 -53.21484375 3.80859375 C-38.93705138 -7.78127415 -15.74662175 -9.35388076 0 0 Z M-24.22265625 1.6796875 C-23.91185525 6.85970422 -22.96926393 9.17551837 -19.43359375 12.92578125 C-17.05929752 16.36468127 -16.76140716 20.61091199 -16.22265625 24.6796875 C-15.56265625 24.0196875 -14.90265625 23.3596875 -14.22265625 22.6796875 C-14.43438871 17.17464358 -15.97177935 14.04515076 -19.22265625 9.6796875 C-19.97915332 8.55904608 -20.72938408 7.43414378 -21.47265625 6.3046875 C-22.05015625 5.4384375 -22.62765625 4.5721875 -23.22265625 3.6796875 C-21.75892578 4.02193359 -21.75892578 4.02193359 -20.265625 4.37109375 C-18.99332031 4.65855469 -17.72101562 4.94601563 -16.41015625 5.2421875 C-15.14558594 5.53222656 -13.88101563 5.82226562 -12.578125 6.12109375 C-9.24061216 6.94551773 -9.24061216 6.94551773 -6.22265625 5.6796875 C-12.26323201 3.40911647 -17.78584397 2.19054562 -24.22265625 1.6796875 Z M-57.22265625 21.6796875 C-56.22265625 23.6796875 -56.22265625 23.6796875 -56.22265625 23.6796875 Z M-58.22265625 23.6796875 C-57.22265625 25.6796875 -57.22265625 25.6796875 -57.22265625 25.6796875 Z M-60.22265625 29.6796875 C-59.22265625 31.6796875 -59.22265625 31.6796875 -59.22265625 31.6796875 Z M-61.22265625 33.6796875 C-61.22265625 37.6396875 -61.22265625 41.5996875 -61.22265625 45.6796875 C-60.89265625 45.6796875 -60.56265625 45.6796875 -60.22265625 45.6796875 C-60.22265625 41.7196875 -60.22265625 37.7596875 -60.22265625 33.6796875 C-60.55265625 33.6796875 -60.88265625 33.6796875 -61.22265625 33.6796875 Z M-5.22265625 36.6796875 C-5.55265625 38.3296875 -5.88265625 39.9796875 -6.22265625 41.6796875 C-8.20265625 41.6796875 -10.18265625 41.6796875 -12.22265625 41.6796875 C-12.55265625 41.0196875 -12.88265625 40.3596875 -13.22265625 39.6796875 C-15.20265625 40.0096875 -17.18265625 40.3396875 -19.22265625 40.6796875 C-18.56265625 41.0096875 -17.90265625 41.3396875 -17.22265625 41.6796875 C-17.55265625 42.6696875 -17.88265625 43.6596875 -18.22265625 44.6796875 C-19.87265625 45.0096875 -21.52265625 45.3396875 -23.22265625 45.6796875 C-23.55265625 45.0196875 -23.88265625 44.3596875 -24.22265625 43.6796875 C-25.21265625 44.0096875 -26.20265625 44.3396875 -27.22265625 44.6796875 C-26.23265625 46.1646875 -26.23265625 46.1646875 -25.22265625 47.6796875 C-28.64824709 46.47610153 -30.75524234 45.32076104 -33.22265625 42.6796875 C-35.74975253 44.86647655 -38.1487448 47.05200912 -40.22265625 49.6796875 C-40.354761 52.54889612 -40.354761 52.54889612 -39.22265625 54.6796875 C-37.24265625 55.0096875 -35.26265625 55.3396875 -33.22265625 55.6796875 C-33.22265625 54.3596875 -33.22265625 53.0396875 -33.22265625 51.6796875 C-30.91265625 51.6796875 -28.60265625 51.6796875 -26.22265625 51.6796875 C-26.55265625 52.9996875 -26.88265625 54.3196875 -27.22265625 55.6796875 C-23.92265625 55.3496875 -20.62265625 55.0196875 -17.22265625 54.6796875 C-17.88265625 53.3596875 -18.54265625 52.0396875 -19.22265625 50.6796875 C-15.78745145 48.38955097 -14.23732525 48.50125777 -10.22265625 48.6796875 C-10.55265625 49.9996875 -10.88265625 51.3196875 -11.22265625 52.6796875 C-7.75765625 52.1846875 -7.75765625 52.1846875 -4.22265625 51.6796875 C-4.88265625 49.6996875 -5.54265625 47.7196875 -6.22265625 45.6796875 C-3.58265625 45.3496875 -0.94265625 45.0196875 1.77734375 44.6796875 C1.77734375 45.9996875 1.77734375 47.3196875 1.77734375 48.6796875 C3.42734375 48.3496875 5.07734375 48.0196875 6.77734375 47.6796875 C6.11734375 47.0196875 5.45734375 46.3596875 4.77734375 45.6796875 C8.24234375 42.7096875 8.24234375 42.7096875 11.77734375 39.6796875 C11.28234375 38.1946875 11.28234375 38.1946875 10.77734375 36.6796875 C6.12490361 34.35346743 -0.29641435 35.69443912 -5.22265625 36.6796875 Z " fill="#024B1B" transform="translate(72.22265625,8.3203125)"/>
<path d="M0 0 C1.0078125 1.5390625 1.0078125 1.5390625 2.125 3.625 C4.57091159 7.75522196 7.37652998 10.11428145 11.328125 12.7734375 C13.78770541 14.57789602 13.97696856 15.86756924 14.5 18.875 C14.34471548 25.04755977 10.8339534 30.38767687 7 35 C4.04683602 36.93551963 1.13236704 38.31829502 -2.109375 39.70703125 C-6.03641436 41.46358534 -9.29709877 43.62137347 -12 47 C-13.00237644 49.63541947 -13.00237644 49.63541947 -12 52 C-7.4129658 55.89145934 -2.46025294 55.49813293 3.25 55.4375 C4.22565918 55.43137695 5.20131836 55.42525391 6.20654297 55.41894531 C18.69058191 55.1538048 30.01579657 52.00661661 41.6796875 47.63671875 C44 47 44 47 47 48 C35.57092735 52.86343517 24.238448 56.66776746 12 59 C24.91965899 60.23174715 37.91865627 56.14908618 48 48 C48.66 48.33 49.32 48.66 50 49 C46.38984066 59.19339108 39.54853599 65.24088971 30.0546875 69.96875 C21.62944306 73.42854619 10.21424246 73.52056454 1.625 70.5625 C-7.07358951 66.44830226 -15.64338631 58.23791031 -19.25 49.25 C-22.95489766 38.29767305 -22.27559282 26.41416051 -17.62109375 15.87890625 C-14.39454603 10.14886848 -7.47537288 0 0 0 Z " fill="#F8B712" transform="translate(33,14)"/>
<path d="M0 0 C8.71654494 0.32585215 15.01049257 2.20100803 22.5625 6.4375 C24 8 24 8 24.359375 10.28515625 C23.86864668 13.99228866 22.28076209 15.35297011 19.6875 18 C15.91402514 21.88892739 12.82056269 25.36473137 11.1875 30.609375 C9.50547666 33.99555356 7.39231127 34.70062707 4 36.25 C2.9275 36.75015625 1.855 37.2503125 0.75 37.765625 C-0.1575 38.17296875 -1.065 38.5803125 -2 39 C-2.99 39.495 -2.99 39.495 -4 40 C-4.12276498 34.35281114 -2.39302421 31.9560959 1.4375 27.8125 C2.24058594 26.99394531 3.04367188 26.17539062 3.87109375 25.33203125 C6.94125745 21.9689345 8.04476658 20.20869753 7.875 15.625 C6.70176269 10.76444542 4.27647599 7.64118342 1.25 3.75 C0 2 0 2 0 0 Z " fill="#A2CB38" transform="translate(49,12)"/>
<path d="M0 0 C3.42931954 3.7559214 4.56429083 8.23466745 6 13 C4.84242187 13.13277344 3.68484375 13.26554687 2.4921875 13.40234375 C0.95311592 13.58065082 -0.58594607 13.75904062 -2.125 13.9375 C-3.26582031 14.06801758 -3.26582031 14.06801758 -4.4296875 14.20117188 C-8.64329577 14.6915487 -12.821195 15.25902978 -17 16 C-13.06792447 11.05969997 -9.02108788 7.24696497 -3.953125 3.48046875 C-1.91315498 2.0040686 -1.91315498 2.0040686 0 0 Z " fill="#A3CB37" transform="translate(79,27)"/>
<path d="M0 0 C-0.33 1.65 -0.66 3.3 -1 5 C-2.09828125 5.16048828 -2.09828125 5.16048828 -3.21875 5.32421875 C-6.19909052 6.04837452 -7.97243419 7.10293066 -10.5 8.8125 C-19.30658312 14.24300817 -29.58014397 17.5611631 -40 16 C-40.99 15.34 -41.98 14.68 -43 14 C-41.48986328 13.79697266 -41.48986328 13.79697266 -39.94921875 13.58984375 C-28.92457287 11.95317616 -19.01961574 8.77158943 -8.70141602 4.5949707 C-7 4 -7 4 -5 4 C-4.67 3.01 -4.34 2.02 -4 1 C-2 0 -2 0 0 0 Z " fill="#10511A" transform="translate(85,58)"/>
<path d="M0 0 C-0.33 1.65 -0.66 3.3 -1 5 C-2.08087891 5.1546875 -2.08087891 5.1546875 -3.18359375 5.3125 C-6.30040688 6.07333094 -8.37176872 7.26994712 -11.0625 9 C-14.045707 10.91219432 -16.49770531 12.35292477 -20 13 C-20 11.68 -20 10.36 -20 9 C-17.8765984 8.16260219 -15.7512272 7.33019717 -13.625 6.5 C-11.84996094 5.80390625 -11.84996094 5.80390625 -10.0390625 5.09375 C-7 4 -7 4 -5 4 C-4.67 3.01 -4.34 2.02 -4 1 C-2 0 -2 0 0 0 Z " fill="#155419" transform="translate(85,58)"/>
<path d="M0 0 C-8.88140496 3.74911767 -17.53111035 6.98984465 -27 9 C-27 8.01 -27 7.02 -27 6 C-26.06933716 5.73521851 -26.06933716 5.73521851 -25.11987305 5.46508789 C-22.30888435 4.66491784 -19.49818942 3.86372066 -16.6875 3.0625 C-15.71103516 2.78470703 -14.73457031 2.50691406 -13.72851562 2.22070312 C-12.79072266 1.95322266 -11.85292969 1.68574219 -10.88671875 1.41015625 C-9.59060669 1.04096069 -9.59060669 1.04096069 -8.26831055 0.66430664 C-2.80611894 -0.93537298 -2.80611894 -0.93537298 0 0 Z " fill="#EAB011" transform="translate(80,62)"/>
<path d="M0 0 C-0.375 2.4375 -0.375 2.4375 -1 5 C-3.95664519 6.4783226 -6.74229737 6.06032783 -10 6 C-9.625 3.5625 -9.625 3.5625 -9 1 C-6.04335481 -0.4783226 -3.25770263 -0.06032783 0 0 Z " fill="#BC101E" transform="translate(81,45)"/>
<path d="M0 0 C0.928125 0.20625 1.85625 0.4125 2.8125 0.625 C1.9375 4.5 1.9375 4.5 0.8125 5.625 C-1.52047433 5.66592937 -3.85455225 5.66741723 -6.1875 5.625 C-6.1875 4.305 -6.1875 2.985 -6.1875 1.625 C-3.1875 -0.375 -3.1875 -0.375 0 0 Z " fill="#B81121" transform="translate(59.1875,56.375)"/>
<path d="M0 0 C-0.33 1.65 -0.66 3.3 -1 5 C-2.98 5.33 -4.96 5.66 -7 6 C-7.33 4.35 -7.66 2.7 -8 1 C-5.29120665 -0.35439668 -2.99066732 -0.06501451 0 0 Z " fill="#BB101D" transform="translate(74,53)"/>
<path d="M0 0 C0 1.32 0 2.64 0 4 C-1 5 -1 5 -4.0625 5.0625 C-5.031875 5.041875 -6.00125 5.02125 -7 5 C-7 3.68 -7 2.36 -7 1 C-4.53721199 -0.231394 -2.7204945 -0.07159196 0 0 Z " fill="#B4101F" transform="translate(67,46)"/>
<path d="M0 0 C0 1.32 0 2.64 0 4 C-1 5 -1 5 -4.0625 5.0625 C-5.5165625 5.0315625 -5.5165625 5.0315625 -7 5 C-7 3.68 -7 2.36 -7 1 C-4.53721199 -0.231394 -2.7204945 -0.07159196 0 0 Z " fill="#BC1021" transform="translate(46,59)"/>
<path d="M0 0 C-0.33 1.32 -0.66 2.64 -1 4 C-2.65 4.33 -4.3 4.66 -6 5 C-6.33 3.68 -6.66 2.36 -7 1 C-4.53721199 -0.231394 -2.7204945 -0.07159196 0 0 Z " fill="#BB0F1E" transform="translate(55,50)"/>
<path d="M0 0 C0 0.66 0 1.32 0 2 C-1.78810766 2.69670416 -3.58062052 3.38211189 -5.375 4.0625 C-6.37273438 4.44535156 -7.37046875 4.82820313 -8.3984375 5.22265625 C-11 6 -11 6 -13 5 C-11.40377344 3.96679519 -9.79770894 2.94877571 -8.1875 1.9375 C-7.29417969 1.36902344 -6.40085937 0.80054688 -5.48046875 0.21484375 C-3 -1 -3 -1 0 0 Z " fill="#0C521F" transform="translate(59,46)"/>
<path d="M0 0 C-0.33 1.65 -0.66 3.3 -1 5 C-1.7425 5.12375 -2.485 5.2475 -3.25 5.375 C-5.80141485 5.95486701 -7.7267573 6.73708739 -10 8 C-10.66 7.34 -11.32 6.68 -12 6 C-10.865625 5.731875 -9.73125 5.46375 -8.5625 5.1875 C-7.386875 4.795625 -6.21125 4.40375 -5 4 C-4.67 3.01 -4.34 2.02 -4 1 C-2 0 -2 0 0 0 Z " fill="#4F6D17" transform="translate(85,58)"/>
<path d="M0 0 C1.98 0 3.96 0 6 0 C5.67 1.32 5.34 2.64 5 4 C3.02 4 1.04 4 -1 4 C-0.67 2.68 -0.34 1.36 0 0 Z " fill="#BB0E19" transform="translate(36,55)"/>
</svg>
